#!OML:ASF F:\VICON\USERDATA\INSTALL\Justin_Nancy\Justin_Nancy.ASF
:FULLY-SPECIFIED
:DEGREES
98
root 0.607533 18.0229 7.18972 6.88371 1.68545 -4.36544
lowerback 7.65067 2.66463 5.7741
upperback -0.155454 4.22605 3.56129
thorax -4.31046 2.003 0.000117174
lowerneck -21.3121 -5.44152 -10.3554
upperneck 13.2709 -5.85168 8.34914
head 8.15396 -2.483 3.71551
rclavicle -5.76476e-015 -3.65764e-014
rhumerus -42.621 15.3838 -93.7568
rradius 113.473
rwrist -6.88501
rhand -15.7154 27.4283
rfingers 7.12502
rthumb 10.4747 -2.29076
lclavicle -5.76476e-015 -3.65764e-014
lhumerus -64.1046 -5.18695 93.946
lradius 108.535
lwrist 28.1705
lhand -15.2175 6.06511
lfingers 7.12502
lthumb 10.9549 35.7593
rfemur 13.0564 8.28438 31.19
rtibia 46.6073
rfoot 15.2293 6.63094
rtoes 3.19507
lfemur -34.7404 0.110971 -16.7167
ltibia 27.4742
lfoot 4.83219 -4.18161
ltoes -18.1853
99
root 0.599204 17.9058 7.61518 6.15726 1.86443 -3.88058
lowerback 8.35035 2.46132 5.1601
upperback -0.0249669 3.9383 3.35398
thorax -4.60332 1.86617 0.123094
lowerneck -21.3585 -5.35071 -10.1776
upperneck 13.3513 -5.79282 8.40977
head 8.17987 -2.4387 3.71641
rclavicle -6.55989e-015 7.95139e-016
rhumerus -42.9566 15.1717 -94.1589
rradius 112.483
rwrist -6.3894
rhand -15.7682 27.2336
rfingers 7.12502
rthumb 10.4238 -2.48805
lclavicle -6.55989e-015 7.95139e-016
lhumerus -63.6411 -5.55012 93.7531
lradius 108.542
lwrist 28.0644
lhand -15.3041 6.22604
lfingers 7.12502
lthumb 10.8715 35.9246
rfemur 12.3476 7.55099 30.5157
rtibia 50.8028
rfoot 14.7097 6.91592
rtoes 4.21409
lfemur -33.9201 0.415812 -17.4384
ltibia 28.4424
lfoot 4.80205 -5.97028
ltoes -16.2163
100
root 0.583839 17.7832 8.03393 5.66801 2.00042 -3.50132
lowerback 8.80216 2.31885 4.56761
upperback 0.0546663 3.70873 3.14298
thorax -4.80309 1.76039 0.23988
lowerneck -21.1081 -5.24269 -9.95499
upperneck 13.1522 -5.7433 8.5025
head 8.06296 -2.40012 3.71986
rclavicle 1.53064e-014 7.95139e-015
rhumerus -43.3474 14.7081 -94.615
rradius 111.681
rwrist -6.48624
rhand -15.7554 26.7521
rfingers 7.12502
rthumb 10.4361 -2.96893
lclavicle 1.53064e-014 7.95139e-015
lhumerus -63.2455 -6.04522 93.5288
lradius 108.856
lwrist 28.0864
lhand -15.677 6.77021
lfingers 7.12502
lthumb 10.5117 36.4874
rfemur 11.2718 6.81361 29.8917
rtibia 55.1111
rfoot 14.3743 7.7475
rtoes 0.662791
lfemur -33.4062 0.741587 -17.9906
ltibia 29.8829
lfoot 4.6316 -7.81802
ltoes -9.65693
101
root 0.554537 17.6342 8.44143 5.24859 2.10686 -3.4263
lowerback 9.07943 2.18714 4.00253
upperback 0.195229 3.48658 3.1387
thorax -4.84978 1.66435 0.567879
lowerneck -20.8937 -5.12231 -9.88656
upperneck 13.0437 -5.64082 8.64525
head 7.98375 -2.33915 3.7731
rclavicle -3.16068e-014 3.18055e-015
rhumerus -43.3041 14.5036 -94.8003
rradius 110.431
rwrist -7.05291
rhand -15.4587 26.7141
rfingers 7.12502
rthumb 10.7224 -2.99223
lclavicle -3.16068e-014 3.18055e-015
lhumerus -62.919 -6.39195 93.3861
lradius 109.531
lwrist 28.1001
lhand -16.3273 7.87521
lfingers 7.12502
lthumb 9.88436 37.6232
rfemur 10.1596 6.01641 29.6692
rtibia 59.4489
rfoot 13.2967 8.42641
rtoes -6.88494
lfemur -33.1848 1.29373 -18.2076
ltibia 31.9401
lfoot 2.89057 -10.0033
ltoes -4.38219
102
root 0.528686 17.5129 8.86 4.83552 2.18102 -3.3427
lowerback 9.4559 2.05242 3.4739
upperback 0.295802 3.26914 3.13263
thorax -4.98783 1.56777 0.871241
lowerneck -20.6971 -5.04815 -9.93503
upperneck 12.9417 -5.57961 8.86515
head 7.91981 -2.29602 3.8656
rclavicle 2.55438e-014 -7.15625e-015
rhumerus -43.2784 14.0592 -94.7724
rradius 109.295
rwrist -7.47927
rhand -14.608 26.8754
rfingers 7.12502
rthumb 11.5428 -2.78678
lclavicle 2.55438e-014 -7.15625e-015
lhumerus -62.4337 -6.83359 93.2962
lradius 109.999
lwrist 28.0396
lhand -17.2569 8.51699
lfingers 7.12502
lthumb 8.98747 38.3055
rfemur 8.46175 5.32866 29.3414
rtibia 63.8867
rfoot 12.7154 7.38914
rtoes -8.32158
lfemur -32.9225 1.63702 -18.3299
ltibia 34.6082
lfoot -0.113921 -11.7607
ltoes -2.89754
103
root 0.521028 17.381 9.27443 4.5419 2.31777 -3.21495
lowerback 9.9173 1.83738 3.15321
upperback 0.237578 2.97223 3.05408
thorax -5.3219 1.42314 0.99197
lowerneck -20.4766 -4.9021 -10.0534
upperneck 12.9511 -5.43371 9.21764
head 7.88664 -2.20423 4.02781
rclavicle 8.15017e-015 -1.19271e-014
rhumerus -43.9427 13.6709 -95.2188
rradius 108.178
rwrist -6.14165
rhand -15.8965 25.6295
rfingers 7.12502
rthumb 10.3 -4.0983
lclavicle 8.15017e-015 -1.19271e-014
lhumerus -62.0061 -7.20449 93.2139
lradius 110.363
lwrist 27.97
lhand -17.5222 8.15784
lfingers 7.12502
lthumb 8.73146 37.9572
rfemur 6.64653 4.40183 28.7065
rtibia 68.2959
rfoot 11.3584 5.59428
rtoes -5.47463
lfemur -32.6544 1.53598 -18.4217
ltibia 37.6391
lfoot -3.50278 -12.7971
ltoes -0.769237
104
root 0.52474 17.2331 9.68504 4.02848 2.65533 -2.97904
lowerback 10.4321 1.55295 2.8778
upperback 0.343018 2.57756 2.94565
thorax -5.50773 1.23229 1.07596
lowerneck -20.4162 -4.80604 -10.0634
upperneck 13.0135 -5.35028 9.43596
head 7.89633 -2.14551 4.11709
rclavicle 6.75868e-015 5.56597e-015
rhumerus -44.4662 13.1407 -95.5857
rradius 107.149
rwrist -5.78399
rhand -16.3213 25.1281
rfingers 7.12502
rthumb 9.89023 -4.61959
lclavicle 6.75868e-015 5.56597e-015
lhumerus -61.3724 -7.64691 93.1835
lradius 110.801
lwrist 27.822
lhand -17.7853 8.30973
lfingers 7.12502
lthumb 8.47754 38.1196
rfemur 5.17156 3.0995 27.7947
rtibia 72.6152
rfoot 10.0624 4.54948
rtoes -4.36871
lfemur -32.0638 1.08707 -18.6728
ltibia 40.5408
lfoot -7.26378 -12.8591
ltoes -0.566566
105
root 0.52129 17.1083 10.0899 3.39501 2.73892 -2.49277
lowerback 11.0478 1.30645 2.08953
upperback 0.616098 2.16406 2.84435
thorax -5.58958 1.04741 1.46336
lowerneck -20.4126 -4.63394 -9.61839
upperneck 12.7317 -5.16844 9.12815
head 7.76147 -2.06675 3.96013
rclavicle 2.27608e-014 1.11319e-014
rhumerus -44.5151 12.6889 -95.6679
rradius 105.676
rwrist -5.43022
rhand -16.5688 25.5919
rfingers 7.12502
rthumb 9.65143 -4.16699
lclavicle 2.27608e-014 1.11319e-014
lhumerus -60.1721 -7.77797 93.1169
lradius 110.92
lwrist 27.6063
lhand -18.2857 8.78468
lfingers 7.12502
lthumb 7.99455 38.6135
rfemur 3.7666 2.02752 26.5727
rtibia 76.8273
rfoot 9.42795 3.81735
rtoes -3.41666
lfemur -31.1607 0.580202 -19.2031
ltibia 42.9543
lfoot -10.2905 -11.4792
ltoes -1.02312
106
root 0.512566 16.9974 10.4862 3.02476 2.49127 -1.52943
lowerback 11.5189 1.21177 0.708671
upperback 0.921835 1.85438 2.61925
thorax -5.56251 0.926042 2.04784
lowerneck -20.7541 -4.52359 -9.33631
upperneck 12.5452 -5.03364 9.0032
head 7.73224 -1.99252 3.88559
rclavicle 2.26615e-014 1.03368e-014
rhumerus -44.3521 11.9045 -95.6237
rradius 103.727
rwrist -5.0706
rhand -16.7116 26.6812
rfingers 7.12502
rthumb 9.51364 -3.08407
lclavicle 2.26615e-014 1.03368e-014
lhumerus -58.3442 -7.95125 92.9826
lradius 110.654
lwrist 27.4989
lhand -18.4591 9.11576
lfingers 7.12502
lthumb 7.82723 38.9509
rfemur 1.80882 1.19433 24.6885
rtibia 81.0627
rfoot 8.73873 3.22662
rtoes -4.67112
lfemur -30.0112 0.2616 -20.3185
ltibia 44.6469
lfoot -12.7193 -9.48794
ltoes 0.0768697
107
root 0.511667 16.8963 10.8779 2.91265 2.16184 0.0764714
lowerback 11.692 1.23452 -1.05779
upperback 1.23591 1.62439 2.13931
thorax -5.355 0.845186 2.57852
lowerneck -21.3352 -4.57821 -9.34677
upperneck 12.4574 -5.06481 9.09771
head 7.80639 -1.98457 3.91152
rclavicle -9.74045e-015 -2.8625e-014
rhumerus -44.1523 10.7976 -95.478
rradius 101.807
rwrist -5.26665
rhand -16.6348 27.3527
rfingers 7.12502
rthumb 9.58771 -2.40916
lclavicle -9.74045e-015 -2.8625e-014
lhumerus -56.3556 -8.41577 92.7917
lradius 110.356
lwrist 27.7156
lhand -18.2624 9.18402
lfingers 7.12502
lthumb 8.01706 39.012
rfemur -0.558584 0.358026 21.8511
rtibia 85.2317
rfoot 8.03685 3.10146
rtoes -10.0435
lfemur -28.478 0.178716 -22.3133
ltibia 45.593
lfoot -15.3957 -7.32489
ltoes -1.95922
108
root 0.508921 16.8138 11.2617 3.03492 1.64026 1.79151
lowerback 11.6616 1.30636 -2.82481
upperback 1.43665 1.45696 1.50963
thorax -5.14464 0.788496 2.94571
lowerneck -21.7878 -4.65482 -9.35996
upperneck 12.3323 -5.16382 9.35317
head 7.85883 -1.99618 3.98419
rclavicle -2.8128e-014 1.59028e-015
rhumerus -44.1131 9.63176 -95.5855
rradius 99.9638
rwrist -5.81
rhand -16.9031 27.2657
rfingers 7.12502
rthumb 9.32886 -2.5079
lclavicle -2.8128e-014 1.59028e-015
lhumerus -54.3519 -9.01445 92.4036
lradius 109.983
lwrist 28.1961
lhand -18.0211 9.37109
lfingers 7.12502
lthumb 8.25 39.19
rfemur -3.40305 -0.357018 18.8291
rtibia 89.2766
rfoot 7.66786 3.43953
rtoes -12.0582
lfemur -26.9908 0.153873 -24.4224
ltibia 46.0633
lfoot -17.5422 -4.89665
ltoes -3.42944
